# xmcd
#
# Track frame offsets:
#	150
#	17380
#	39903
#	65946
#	91132
#	114660
#	138472
#	156012
#	174040
#	187641
#	207891
#	230391
#	260486
#	288014
#	303525
#	329398
#	341351
#
# Disc length: 4792 seconds
#
# Revision: 1
# Processed by: cddbd v1.5.2PL0 Copyright (c) Steve Scherf et al.
# Submitted via: EasyCDDAExtractor 10.2.0.1
#
DISCID=da12b611
DTITLE=Various Artist - Chunky! (15th August 2010)
DYEAR=2010
DGENRE=House
TTITLE0=Rudenko - Music ///original mix
TTITLE1=Adrian Lux - Teenage Crime ///original mix
TTITLE2=Thomas Gold ft. Amanda Wilson - Just Because ///thomas gold original m
TTITLE2=ix
TTITLE3=Kid Massive - Music Is The Answer ///a and d remix
TTITLE4=Reboot - Enjoy Music ///riva starr remix
TTITLE5=Chris Lake and Marco Lys ft. Tasita D'Mour - La Tromba Risin' ///origina
TTITLE5=l mix
TTITLE6=Robyn - Hang With Me ///avicii's exclusive club mix
TTITLE7=Mind Electric - 3 A.M. Eternal ///stonebridge classic mix
TTITLE8=Crookers ft. Roisin Murphy - Royal T ///riva starr remix
TTITLE9=Fake Blood - I Think I Like It ///original mix
TTITLE10=Dennis Ferrer ft. Shingai - Hey Hey (Pacha All Star Remixes) ///tucci
TTITLE10=llo remix
TTITLE11=Paloma Faith - New York ///tom middleton mix ~ laidback luke remaster
TTITLE11=edit
TTITLE12=Dirty South ft. Rudy - Phazing ///original mix
TTITLE13=Steve Smart Vs Sundance - Missing You ///dirty freek vocal mix
TTITLE14=Dizzee Rascal - Dirtee Cash ///luke chable remix
TTITLE15=Steve Nice - Hardcore Massive ///original mix
TTITLE16=Dada Life - Cookies With A Smile ///original mix
EXTD=
EXTT0=
EXTT1=
EXTT2=
EXTT3=
EXTT4=
EXTT5=
EXTT6=
EXTT7=
EXTT8=
EXTT9=
EXTT10=
EXTT11=
EXTT12=
EXTT13=
EXTT14=
EXTT15=
EXTT16=
PLAYORDER=
